<?xml version="1.0" encoding="UTF-8" standalone="no"?>
<svg
  version="1.1"
  x="0px"
  y="0px"
  width="90"
  height="37.950001"
  viewBox="18 -5 60 25.300001"
  xml:space="preserve"
  xmlns="http://www.w3.org/2000/svg"
  xmlns:svg="http://www.w3.org/2000/svg"
  fill="black"
>
  <g>
    <path d="M 23.7,7.6 22.4,4.2 18.9,3 C 18.4,2.8 18,2.3 18,1.7 18,1.1 18.4,0.6 18.9,0.5 l 3.5,-1.3 1.3,-3.4 c 0.2,-0.5 0.7,-0.8 1.2,-0.8 0.6,0 1.1,0.3 1.3,0.9 l 1.3,3.4 3.6,1.3 c 0.5,0.2 0.8,0.7 0.8,1.2 0,0.4 -0.2,0.8 -0.6,1 l -0.1,-0.3 -5.1,-1.9 -1.1,-3 -1.1,3 -3.2,1.1 c 0,0 2.9,1.1 3.1,1.1 0.1,0.2 1.1,3.1 1.1,3.1 l 0.9,-2.4 1.7,0.6 -1.3,3.5 c -0.2,0.5 -0.7,0.9 -1.3,0.9 -0.5,0 -1,-0.4 -1.2,-0.9" />
    <path d="m 33.3,-4.1 1.3,3.4 3.4,1.2 c 0.5,0.2 0.9,0.7 0.9,1.2 0,0.6 -0.4,1.1 -0.9,1.2 L 34.5,4.2 33.2,7.6 C 33,8.1 32.5,8.5 31.9,8.5 31.3,8.5 30.8,8.2 30.6,7.6 L 29.3,4.2 25.8,3 C 25.4,2.7 25,2.3 25,1.8 25,1.4 25.2,1 25.6,0.8 l 0.1,0.2 5.1,1.9 1.1,3 1.1,-3 3.1,-1.1 c 0,0 -2.9,-1.1 -3.1,-1.1 0.1,-0.2 -1,-3.1 -1,-3.1 L 31.1,0 29.4,-0.6 30.7,-4.1 C 30.9,-4.6 31.4,-5 32,-5 c 0.6,0 1.1,0.4 1.3,0.9" />
    <path d="m 46.1,8 c -1,-0.4 -1.8,-0.6 -2.8,-0.6 -2.9,0 -4.9,2 -4.9,5.2 0,2.8 1.2,4.9 4.7,4.9 h 3.1 V 8 m 2.9,11.9 h -6.4 c -4.6,0 -7.4,-3 -7.4,-7.8 0,-4.3 3.2,-7.4 7.6,-7.4 1,0 2,0.2 3.2,0.6 v -6 h 3 c 0,0 0,20.6 0,20.6 z" />
    <path d="m 67.2,17.5 h 3.1 c 3.5,0 4.7,-2.1 4.7,-4.9 0,-3.1 -2,-5.2 -4.9,-5.2 -1,0 -1.8,0.2 -2.8,0.6 v 9.5 M 64.2,-0.7 h 3 V 5.4 C 68.4,5 69.4,4.8 70.4,4.8 74.9,4.8 78,7.9 78,12.2 78,17 75.1,20 70.6,20 h -6.4 c 0,0 0,-20.7 0,-20.7 z" />
    <path d="M 61.4,8.6 C 59.6,7.5 58,7 56.8,7 c -1.3,0 -2.1,0.6 -2.1,1.4 0.1,1.9 7.3,3.5 7.4,7.4 0.1,2.7 -2.2,4.5 -5.2,4.5 -1.9,0 -3.4,-0.4 -5.5,-1.4 v -3.3 c 2,1.4 3.9,2 5.2,2 1.3,-0.1 2.3,-0.7 2.3,-1.7 0,-2.1 -7.4,-3.3 -7.4,-7.4 0,-2.6 2,-4.2 5.2,-4.2 1.5,0 3,0.4 4.6,1.3 v 3" />
  </g>
</svg>
