<?xml version="1.0" encoding="UTF-8" standalone="no"?>
<svg
   version="1.1"
   x="0px"
   y="0px"
   viewBox="0 0 600.00141 144.14905"
   xml:space="preserve"
   width="600.0014"
   height="144.149"
   xmlns="http://www.w3.org/2000/svg"
   xmlns:svg="http://www.w3.org/2000/svg"
   fill="black"
>
   <path d="M 31.9,71.2 24.6,52.1 5,45 C 2,43.9 0,41.1 0,38 0,34.9 2,32.1 5,31 L 24.6,24 31.9,4.9 C 33,2 35.9,0 39.1,0 c 3.2,0 6.1,2 7.2,4.9 l 7.2,18.9 20.3,7.5 c 2.7,1.2 4.4,3.9 4.4,6.7 0,2.3 -1.2,4.5 -3.1,5.9 L 74.5,42.2 45.6,31.7 39.1,14.5 32.6,31.7 15.1,38.1 c 0,0 16.6,6 17.5,6.3 0.3,0.9 6.5,17.2 6.5,17.2 l 5.2,-13.7 9.6,3.5 -7.6,19.9 c -1.1,2.9 -4,4.9 -7.2,4.9 -3.2,-0.1 -6.1,-2 -7.2,-5 z" />
   <path d="m 86,4.9 7.3,19.1 19.6,7.1 c 3,1.1 5,3.9 5,7 0,3.1 -2,5.9 -5,7 L 93.3,52.2 86,71.3 c -1.1,2.9 -4,4.9 -7.2,4.9 -3.2,0 -6.1,-2 -7.2,-4.9 L 64.4,52.4 44.1,44.9 c -2.7,-1.2 -4.4,-3.9 -4.4,-6.7 0,-2.3 1.2,-4.5 3.1,-5.9 l 0.6,1.7 28.9,10.6 6.5,17.2 6.5,-17.2 17.5,-6.4 c 0,0 -16.6,-6 -17.5,-6.3 C 85,31 78.8,14.7 78.8,14.7 L 73.6,28.4 64,24.9 71.6,5 C 72.7,2.1 75.6,0.1 78.8,0.1 82,0 84.9,2 86,4.9 Z" />
   <path d="m 175.5,140.6 h -36.2 c -25.7,0 -41.8,-17 -41.8,-43.8 0,-24.2 17.8,-41.5 42.9,-41.5 5.7,0 11.1,0.9 18,3.3 V 24 h 17.1 z m -17,-67.2 c -5.7,-2.2 -10.2,-3.2 -15.9,-3.2 -16.5,0 -27.6,11.5 -27.6,29.1 0,15.7 6.5,27.4 26.2,27.4 h 17.3 z" />
   <path d="m 260.3,24 h 17.1 v 34.6 c 6.9,-2.4 12.3,-3.3 18,-3.3 25.1,0 42.9,17.3 42.9,41.5 0,26.8 -16.1,43.8 -41.8,43.8 h -36.2 z m 17.1,102.6 h 17.2 c 19.7,0 26.3,-11.7 26.3,-27.4 0,-17.5 -11.1,-29.1 -27.6,-29.1 -5.7,0 -10.1,0.9 -15.9,3.2 z" />
   <path d="m 244.7,76.6 c -9.9,-6.4 -19.2,-9.1 -25.8,-9.1 -7.1,0 -11.9,3.3 -11.7,7.9 0.5,10.9 41,20 41.6,41.8 0.4,15.3 -12.5,25.5 -29.3,25.5 -10.9,0 -19.4,-2.1 -30.9,-7.9 v -18.6 c 11.5,7.7 22,11.4 29.1,11.4 7.1,-0.4 13.1,-3.7 13.1,-9.9 0,-12 -41.6,-18.4 -41.6,-41.8 0,-14.7 11.5,-23.6 29.3,-23.6 8.3,0 16.8,2.3 26.2,7.2 z" />
   <g transform="translate(-123.4,-228)">
      <g>
         <path d="m 497,299.4 c -1.2,1.9 -3.1,2.4 -6.5,2.4 h -6.7 v -18.7 h 6.7 c 3.4,0 5.3,0.6 6.5,2.4 0.9,1.4 1.2,3.1 1.2,6.9 0,4 -0.2,5.6 -1.2,7 z m -2.2,-12.6 c -0.7,-1 -1.9,-1.3 -4.4,-1.3 h -4.1 v 14.2 h 4.1 c 2.6,0 3.7,-0.3 4.4,-1.3 0.6,-0.9 0.9,-2.4 0.9,-5.8 0,-3.5 -0.3,-4.9 -0.9,-5.8 z" />
         <path d="m 503.2,285.8 c -0.5,0 -1.4,-0.3 -1.4,-1.4 0,-1.2 0.9,-1.4 1.4,-1.4 0.5,0 1.4,0.3 1.4,1.4 0,1.1 -0.9,1.4 -1.4,1.4 z m -1.2,16.1 v -13.6 h 2.4 v 13.6 z" />
         <path d="m 516.2,292.2 c 0,-1.5 -0.6,-2 -2.4,-2 -3.5,0 -3.2,3.4 -3.2,5.8 v 5.9 h -2.4 v -13.6 h 2.2 v 1.3 c 0.9,-1 2.2,-1.5 3.8,-1.5 2.8,0 4.3,1.3 4.3,4.1 z" />
         <path d="m 522.6,295.9 c 0,2.9 0.5,4.1 3.7,4.1 1.5,0 3.4,-0.2 3.4,-2.1 h 2.2 c 0,3.5 -3,4.2 -5.7,4.2 -5.3,0 -6.1,-2.7 -6.1,-6.9 0,-4.3 0.8,-7.1 6,-7.1 5.7,0 6,3.2 6,7.8 z m 3.6,-5.8 c -2.9,0 -3.6,1.3 -3.6,3.7 h 7.2 c 0,-2.6 -0.5,-3.7 -3.6,-3.7 z" />
         <path d="m 544.2,301.9 -6.3,-6.5 v 6.5 h -2.4 v -19.6 h 2.4 v 11.3 l 6.3,-5.4 h 3.3 l -7.3,6.2 7.3,7.4 h -3.3 z" />
         <path d="m 555.7,302.1 c -3,0 -4.7,-1.3 -4.7,-4.2 v -7.5 h -2.2 v -2 h 2.2 v -5.1 h 2.4 v 5.1 h 6 v 2 h -6 v 7.5 c 0,1.6 0.7,2.2 2.4,2.2 1.7,0 2.5,-0.6 2.5,-2.1 h 2.2 c 0,3 -2.1,4.1 -4.8,4.1 z" />
         <path d="m 573.2,300.6 c -1.1,1.1 -2.7,1.5 -4.8,1.5 -2.2,0 -3.8,-0.4 -4.9,-1.5 -1.1,-1.1 -1.4,-2.7 -1.4,-5.5 0,-2.8 0.3,-4.4 1.4,-5.5 1.1,-1.1 2.7,-1.5 4.9,-1.5 2.2,0 3.7,0.4 4.8,1.5 1.1,1.1 1.4,2.7 1.4,5.5 0,2.8 -0.3,4.4 -1.4,5.5 z m -4.8,-10.4 c -3.6,0 -3.8,1.6 -3.8,4.9 0,3.3 0.2,4.9 3.8,4.9 3.6,0 3.8,-1.6 3.8,-4.9 0,-3.4 -0.3,-4.9 -3.8,-4.9 z" />
         <path d="m 586,292.2 c 0,-1.5 -0.6,-2 -2.4,-2 -3.5,0 -3.2,3.4 -3.2,5.8 v 5.9 H 578 v -13.6 h 2.2 v 1.3 c 0.9,-1 2.2,-1.5 3.8,-1.5 2.8,0 4.3,1.3 4.3,4.1 z" />
         <path d="m 599.3,301.9 v -1.3 c -0.8,1 -2.4,1.5 -4.5,1.5 -3.4,0 -5.3,-1.1 -5.3,-4.2 0,-3.8 2.7,-4.3 5.6,-4.3 h 4 c 0,-2.3 0.1,-3.4 -3.4,-3.4 -1.6,0 -3.5,0.1 -3.5,2 H 590 c 0,-3.3 2.7,-4.1 6,-4.1 5.7,0 5.6,3.2 5.6,5.5 v 8.3 z m -4.2,-6.3 c -2.1,0 -3.1,0.3 -3.1,2.3 0,1.5 0.7,2.2 3.1,2.2 3.8,0 4.1,-1.5 4.1,-4.5 z" />
         <path d="m 610.9,302.1 c -3,0 -4.7,-1.3 -4.7,-4.2 v -7.5 H 604 v -2 h 2.2 v -5.1 h 2.4 v 5.1 h 6 v 2 h -6 v 7.5 c 0,1.6 0.7,2.2 2.4,2.2 1.7,0 2.5,-0.6 2.5,-2.1 h 2.2 c 0,3 -2,4.1 -4.8,4.1 z" />
         <path d="m 620.1,295.9 c 0,2.9 0.5,4.1 3.7,4.1 1.5,0 3.4,-0.2 3.4,-2.1 h 2.2 c 0,3.5 -3,4.2 -5.7,4.2 -5.3,0 -6.1,-2.7 -6.1,-6.9 0,-4.3 0.8,-7.1 6,-7.1 5.7,0 6,3.2 6,7.8 z m 3.6,-5.8 c -2.9,0 -3.6,1.3 -3.6,3.7 h 7.2 c 0,-2.6 -0.6,-3.7 -3.6,-3.7 z" />
         <path d="m 638.7,302.1 c -3,0 -4.7,-1.3 -4.7,-4.2 v -7.5 h -2.2 v -2 h 2.2 v -5.1 h 2.4 v 5.1 h 6 v 2 h -6 v 7.5 c 0,1.6 0.7,2.2 2.4,2.2 1.7,0 2.5,-0.6 2.5,-2.1 h 2.2 c 0,3 -2,4.1 -4.8,4.1 z" />
         <path d="m 660.5,285.3 c 0,-0.9 -1.1,-1.2 -2.2,-1.2 -2.2,0 -2.7,0.8 -2.7,2.6 v 1.6 h 5.1 v 2 h -5.1 v 11.5 h -2.4 V 290.3 H 651 v -2 h 2.2 v -1.9 c 0,-3.1 2,-4.3 5,-4.3 2.6,0 4.6,0.8 4.6,3.2 z" />
         <path d="m 673.9,300.6 c -1.1,1.1 -2.7,1.5 -4.8,1.5 -2.2,0 -3.8,-0.4 -4.9,-1.5 -1.1,-1.1 -1.4,-2.7 -1.4,-5.5 0,-2.8 0.3,-4.4 1.4,-5.5 1.1,-1.1 2.7,-1.5 4.9,-1.5 2.2,0 3.7,0.4 4.8,1.5 1.1,1.1 1.4,2.7 1.4,5.5 0,2.8 -0.3,4.4 -1.4,5.5 z m -4.8,-10.4 c -3.6,0 -3.8,1.6 -3.8,4.9 0,3.3 0.2,4.9 3.8,4.9 3.6,0 3.8,-1.6 3.8,-4.9 0,-3.4 -0.2,-4.9 -3.8,-4.9 z" />
         <path d="m 686.7,292.2 c 0,-1.5 -0.6,-2 -2.4,-2 -3.5,0 -3.2,3.4 -3.2,5.8 v 5.9 h -2.4 v -13.6 h 2.2 v 1.3 c 0.9,-1 2.2,-1.5 3.8,-1.5 2.8,0 4.3,1.3 4.3,4.1 z" />
         <path d="m 492.2,324.3 c 0,-1.5 -0.8,-2.1 -3.1,-2.1 -2.9,-0.1 -3.6,0.6 -3.6,1.8 0,2.1 1.2,1.9 2.9,2 3.1,0.2 6,-0.2 6,4.1 0,3.2 -2.3,4.2 -6,4.1 -3.6,0 -5.5,-1 -5.5,-4.2 h 2.2 c 0,1.5 0.7,2.1 3.3,2.1 2.5,0 3.6,-0.3 3.6,-2.2 0,-1.7 -1,-1.6 -3.1,-1.7 -3,-0.1 -5.8,0 -5.8,-4 0,-3.2 2.3,-4.1 6,-4 3.3,0 5.3,1 5.3,4.2 h -2.2 z" />
         <path d="m 506.7,334 v -1.3 c -0.8,1 -2.4,1.5 -4.5,1.5 -3.4,0 -5.3,-1.1 -5.3,-4.2 0,-3.8 2.7,-4.3 5.6,-4.3 h 4 c 0,-2.3 0.1,-3.4 -3.4,-3.4 -1.6,0 -3.5,0.1 -3.5,2 h -2.3 c 0,-3.3 2.7,-4.1 6,-4.1 5.7,0 5.6,3.2 5.6,5.5 v 8.3 z m -4.3,-6.4 c -2.1,0 -3.1,0.3 -3.1,2.3 0,1.5 0.7,2.2 3.1,2.2 3.8,0 4.1,-1.5 4.1,-4.5 z" />
         <path d="m 528.9,334 v -8.2 c 0,-2.1 0,-3.4 -2.6,-3.4 -3.4,0 -3.2,3 -3.2,5.4 v 6.2 h -2.4 v -8.2 c 0,-2.1 0,-3.4 -2.6,-3.4 -3.4,0 -3.2,3.1 -3.2,5.5 v 6.1 h -2.4 v -13.6 h 2.2 v 1.3 c 0.7,-0.8 1.9,-1.5 3.8,-1.5 1.8,0 3.1,0.6 3.8,1.8 1,-1.2 2.3,-1.8 4.2,-1.8 2.1,0 3.7,0.7 4.3,2.2 0.4,1 0.4,2.2 0.4,3.4 v 8.2 z" />
         <path d="m 543,317.4 c 0,-0.9 -1.1,-1.2 -2.2,-1.2 -2.2,0 -2.7,0.8 -2.7,2.6 v 1.6 h 5.1 v 2 h -5.1 V 334 h -2.4 v -11.5 h -2.2 v -2 h 2.2 v -1.9 c 0,-3.1 2,-4.3 5,-4.3 2.6,0 4.6,0.8 4.6,3.2 H 543 Z" />
         <path d="m 555.2,334 v -1.3 c -0.8,0.9 -2.1,1.6 -4.1,1.6 -5.3,0 -5.1,-3.4 -5.1,-6.4 v -7.4 h 2.4 v 7.2 c 0,2.9 -0.3,4.4 3,4.4 3.8,0 3.7,-2.6 3.7,-5.3 v -6.3 h 2.4 V 334 Z" />
         <path d="m 570.2,334 v -7.2 c 0,-2.9 0.3,-4.4 -3,-4.4 -3.8,0 -3.7,2.6 -3.7,5.3 v 6.3 h -2.4 v -13.6 h 2.2 v 1.3 c 0.8,-0.9 2.1,-1.5 4.1,-1.5 5.5,0 5.1,3.4 5.1,6.4 v 7.4 z" />
         <path d="m 585.3,334 v -7.2 c 0,-2.9 0.3,-4.4 -3,-4.4 -3.8,0 -3.7,2.6 -3.7,5.3 v 6.3 h -2.4 v -13.6 h 2.2 v 1.3 c 0.8,-0.9 2.1,-1.5 4.1,-1.5 5.5,0 5.1,3.4 5.1,6.4 v 7.4 z" />
         <path d="m 600,324.3 c 0,-1.5 -0.8,-2.1 -3.1,-2.1 -2.9,-0.1 -3.6,0.6 -3.6,1.8 0,2.1 1.2,1.9 2.9,2 3.1,0.2 6,-0.2 6,4.1 0,3.2 -2.3,4.2 -6,4.1 -3.6,0 -5.5,-1 -5.5,-4.2 h 2.2 c 0,1.5 0.7,2.1 3.3,2.1 2.5,0 3.6,-0.3 3.6,-2.2 0,-1.7 -1,-1.6 -3.1,-1.7 -3,-0.1 -5.8,0 -5.8,-4 0,-3.2 2.3,-4.1 6,-4 3.3,0 5.3,1 5.3,4.2 H 600 Z" />
         <path d="m 614.1,324.3 c 0,-1.5 -0.8,-2.1 -3.1,-2.1 -2.9,-0.1 -3.6,0.6 -3.6,1.8 0,2.1 1.2,1.9 2.9,2 3.1,0.2 6,-0.2 6,4.1 0,3.2 -2.3,4.2 -6,4.1 -3.6,0 -5.5,-1 -5.5,-4.2 h 2.2 c 0,1.5 0.7,2.1 3.3,2.1 2.5,0 3.6,-0.3 3.6,-2.2 0,-1.7 -1,-1.6 -3.1,-1.7 -3,-0.1 -5.8,0 -5.8,-4 0,-3.2 2.3,-4.1 6,-4 3.3,0 5.3,1 5.3,4.2 h -2.2 z" />
         <path d="m 620.7,317.8 c -0.5,0 -1.4,-0.3 -1.4,-1.4 0,-1.1 0.9,-1.4 1.4,-1.4 0.5,0 1.4,0.3 1.4,1.4 0,1.1 -0.9,1.4 -1.4,1.4 z m -1.2,16.2 v -13.6 h 2.4 V 334 Z" />
         <path d="m 634.3,334 -6.3,-6.5 v 6.5 h -2.4 v -19.6 h 2.4 v 11.3 l 6.3,-5.4 h 3.3 l -7.3,6.2 7.3,7.4 h -3.3 z" />
         <path d="m 648.1,334 -6.3,-6.5 v 6.5 h -2.4 v -19.6 h 2.4 v 11.3 l 6.3,-5.4 h 3.3 l -7.3,6.2 7.3,7.4 h -3.3 z" />
         <path d="m 654.8,328 c 0,2.9 0.5,4.1 3.7,4.1 1.5,0 3.4,-0.2 3.4,-2.1 h 2.2 c 0,3.5 -3,4.2 -5.7,4.2 -5.3,0 -6.1,-2.7 -6.1,-6.9 0,-4.3 0.8,-7.1 6,-7.1 5.7,0 6,3.2 6,7.8 z m 3.6,-5.8 c -2.9,0 -3.6,1.3 -3.6,3.7 h 7.2 c 0,-2.6 -0.5,-3.7 -3.6,-3.7 z" />
         <path d="m 675.8,324.3 c 0,-1.5 -0.6,-2 -2.4,-2 -3.5,0 -3.2,3.4 -3.2,5.8 v 5.9 h -2.4 v -13.6 h 2.2 v 1.3 c 0.9,-1 2.2,-1.5 3.8,-1.5 2.8,0 4.3,1.3 4.3,4.1 z" />
         <path d="m 689.2,334 v -7.2 c 0,-2.9 0.3,-4.4 -3,-4.4 -3.8,0 -3.7,2.6 -3.7,5.3 v 6.3 h -2.4 v -19.6 h 2.4 v 7.2 c 0.9,-0.9 2,-1.4 3.9,-1.4 5.5,0 5.1,3.4 5.1,6.4 v 7.4 z" />
         <path d="m 697.2,328 c 0,2.9 0.5,4.1 3.7,4.1 1.5,0 3.4,-0.2 3.4,-2.1 h 2.2 c 0,3.5 -3,4.2 -5.7,4.2 -5.3,0 -6.1,-2.7 -6.1,-6.9 0,-4.3 0.8,-7.1 6,-7.1 5.7,0 6,3.2 6,7.8 z m 3.6,-5.8 c -2.9,0 -3.6,1.3 -3.6,3.7 h 7.2 c 0,-2.6 -0.5,-3.7 -3.6,-3.7 z" />
         <path d="m 715.9,334.2 c -3,0 -4.7,-1.3 -4.7,-4.2 v -7.5 H 709 v -2 h 2.2 v -5.1 h 2.4 v 5.1 h 6 v 2 h -6 v 7.5 c 0,1.6 0.7,2.2 2.4,2.2 1.7,0 2.5,-0.6 2.5,-2.1 h 2.2 c 0,3 -2.1,4.1 -4.8,4.1 z" />
         <path d="m 494,364.7 c -1.1,1.1 -2.7,1.5 -4.8,1.5 -2.2,0 -3.8,-0.4 -4.9,-1.5 -1.1,-1.1 -1.4,-2.7 -1.4,-5.5 0,-2.8 0.3,-4.4 1.4,-5.5 1.1,-1.1 2.7,-1.5 4.9,-1.5 2.2,0 3.7,0.4 4.8,1.5 1.1,1.1 1.4,2.7 1.4,5.5 0,2.8 -0.3,4.4 -1.4,5.5 z m -4.8,-10.3 c -3.6,0 -3.8,1.6 -3.8,4.9 0,3.3 0.2,4.9 3.8,4.9 3.6,0 3.8,-1.6 3.8,-4.9 0,-3.4 -0.2,-4.9 -3.8,-4.9 z" />
         <path d="m 510.3,367.7 c -0.5,3.1 -3.5,3.8 -6,3.8 -2.9,0 -5.6,-0.9 -5.6,-4 h 2.3 c 0,1.3 1.1,1.9 3.2,1.9 1.8,0 3.6,-0.5 3.8,-2.2 0.1,-0.9 0.1,-1.8 0.1,-2.6 -0.9,1 -2.5,1.5 -4.2,1.5 -5.1,0 -5.5,-3.2 -5.5,-6.9 0,-4 0.6,-6.9 5.5,-6.9 1.8,0 3.4,0.4 4.4,1.5 v -1.3 h 2.2 v 12.2 c -0.1,1.2 -0.1,2.3 -0.2,3 z M 504,354.4 c -2.8,0 -3.3,1.4 -3.3,4.7 0,3.3 0.5,4.7 3.3,4.7 3,0 4,-0.9 4,-4.7 0,-3.7 -0.9,-4.7 -4,-4.7 z" />
         <path d="m 527.1,366.3 c -2,0 -3.4,-0.6 -4.2,-1.5 v 1.3 h -2.2 v -19.6 h 2.4 v 7.2 c 1,-1.1 2.5,-1.5 4.3,-1.5 4.9,0 5.4,2.9 5.4,7 -0.1,3.6 -0.4,7.1 -5.7,7.1 z M 527,354.5 c -3.1,0 -4,1 -4,4.8 0,3.8 1,4.8 4,4.8 2.8,0 3.3,-1.5 3.3,-4.8 0,-3.4 -0.4,-4.8 -3.3,-4.8 z" />
         <path d="m 538.1,360.1 c 0,2.9 0.5,4.1 3.7,4.1 1.5,0 3.4,-0.2 3.4,-2.1 h 2.2 c 0,3.5 -3,4.2 -5.7,4.2 -5.3,0 -6.1,-2.7 -6.1,-6.9 0,-4.3 0.8,-7.1 6,-7.1 5.7,0 6,3.2 6,7.8 z m 3.6,-5.8 c -2.9,0 -3.6,1.3 -3.6,3.7 h 7.2 c 0,-2.6 -0.5,-3.7 -3.6,-3.7 z" />
         <path d="m 559.1,356.4 c 0,-1.5 -0.6,-2 -2.4,-2 -3.5,0 -3.2,3.4 -3.2,5.8 v 5.9 H 551 v -13.6 h 2.2 v 1.3 c 0.9,-1 2.2,-1.5 3.8,-1.5 2.8,0 4.3,1.3 4.3,4.1 z" />
         <path d="m 565.4,360.1 c 0,2.9 0.5,4.1 3.7,4.1 1.5,0 3.4,-0.2 3.4,-2.1 h 2.2 c 0,3.5 -3,4.2 -5.7,4.2 -5.3,0 -6.1,-2.7 -6.1,-6.9 0,-4.3 0.8,-7.1 6,-7.1 5.7,0 6,3.2 6,7.8 z m 3.6,-5.8 c -2.9,0 -3.6,1.3 -3.6,3.7 h 7.2 c 0,-2.6 -0.5,-3.7 -3.6,-3.7 z" />
         <path d="m 587.8,366 v -1.4 c -0.9,1 -2.3,1.6 -4.3,1.6 -5.3,0 -5.6,-3.3 -5.6,-7 0,-3.9 0.6,-7 5.4,-7 1.8,0 3.3,0.4 4.3,1.5 v -7.2 H 590 V 366 Z m -4.2,-11.5 c -2.8,0 -3.3,1.5 -3.3,4.8 0,3.3 0.5,4.8 3.3,4.8 3.1,0 4,-1 4,-4.8 0.1,-3.9 -0.9,-4.8 -4,-4.8 z" />
         <path d="m 602.6,356.4 c 0,-1.5 -0.8,-2.1 -3.1,-2.1 -2.9,-0.1 -3.6,0.6 -3.6,1.8 0,2.1 1.2,1.9 2.9,2 3.1,0.2 6,-0.2 6,4.1 0,3.2 -2.3,4.2 -6,4.1 -3.6,0 -5.5,-1 -5.5,-4.2 h 2.2 c 0,1.5 0.7,2.1 3.3,2.1 2.5,0 3.6,-0.3 3.6,-2.2 0,-1.7 -1,-1.6 -3.1,-1.7 -3,-0.1 -5.8,0 -5.8,-4 0,-3.2 2.3,-4.1 6,-4 3.3,0 5.3,1 5.3,4.2 h -2.2 z" />
         <path d="m 616.7,366 -6.3,-6.5 V 366 H 608 v -19.6 h 2.4 v 11.3 l 6.3,-5.4 h 3.3 l -7.3,6.2 7.3,7.4 h -3.3 z" />
         <path d="m 630.5,366 v -1.3 c -0.8,1 -2.4,1.5 -4.5,1.5 -3.4,0 -5.3,-1.1 -5.3,-4.2 0,-3.8 2.7,-4.3 5.6,-4.3 h 4 c 0,-2.3 0.1,-3.4 -3.4,-3.4 -1.6,0 -3.5,0.1 -3.5,2 h -2.3 c 0,-3.3 2.7,-4.1 6,-4.1 5.7,0 5.6,3.2 5.6,5.5 v 8.3 z m -4.3,-6.3 c -2.1,0 -3.1,0.3 -3.1,2.3 0,1.5 0.7,2.2 3.1,2.2 3.8,0 4.1,-1.5 4.1,-4.5 z" />
         <path d="m 642.7,366.3 c -1.8,0 -3.1,-0.4 -4,-1.5 v 6.7 h -2.4 v -18.9 h 2.2 v 1.3 c 1,-1.1 2.6,-1.6 4.4,-1.6 5,0 5.5,2.8 5.5,7 0,3.5 -0.4,7 -5.7,7 z m 0,-11.8 c -3.1,0 -4,0.9 -4,4.8 0,3.9 1,4.8 4,4.8 2.8,0 3.3,-1.5 3.3,-4.8 0,-3.4 -0.4,-4.8 -3.3,-4.8 z" />
      </g>
   </g>
</svg>
