<svg xmlns="http://www.w3.org/2000/svg" width="1831" height="795" viewBox="0 0 1831 795" version="1.1">
	<path d="M 201.024 1.603 C 191.475 4.169, 183.209 9.941, 177.737 17.865 C 175.641 20.901, 167.450 41.645, 153.999 77.985 L 133.462 133.469 77.981 154.006 C 41.461 167.525, 20.903 175.645, 17.827 177.767 C 1.285 189.177, -4.558 212.061, 4.456 230.138 C 7.558 236.359, 14.760 244.145, 20.500 247.481 C 22.700 248.760, 49.025 258.877, 79 269.964 L 133.500 290.122 152.926 342.811 C 163.611 371.790, 173.581 397.975, 175.082 401 C 182.656 416.262, 200.866 425.657, 217.671 422.973 C 229.413 421.097, 239.611 414.786, 246.069 405.399 C 247.958 402.654, 257.198 379.154, 270.439 343.420 L 291.767 285.862 289.134 284.841 C 267.690 276.527, 240.537 267.066, 239.920 267.693 C 239.483 268.137, 233.203 284.700, 225.964 304.500 C 218.726 324.300, 212.494 340.831, 212.116 341.236 C 211.738 341.640, 203.621 320.629, 194.079 294.544 L 176.729 247.116 130.615 229.946 C 105.252 220.502, 84.163 212.467, 83.751 212.089 C 83.340 211.712, 103.995 203.565, 129.653 193.986 L 176.303 176.569 178.023 172.534 C 178.968 170.316, 186.846 149.038, 195.528 125.250 C 204.211 101.462, 211.581 82.008, 211.907 82.017 C 212.233 82.027, 220.107 102.926, 229.405 128.459 C 238.702 153.992, 246.577 175.287, 246.905 175.780 C 247.232 176.274, 282.150 189.653, 324.500 205.511 C 366.850 221.369, 402.060 234.770, 402.745 235.291 C 403.430 235.811, 404.514 237.984, 405.154 240.119 C 405.793 242.253, 406.634 244, 407.021 244 C 407.409 244, 409.844 241.736, 412.433 238.968 C 424.071 226.526, 426.690 208.074, 418.967 192.934 C 416.043 187.204, 407.937 178.769, 402.723 176.033 C 400.400 174.814, 374.015 164.520, 344.089 153.158 L 289.677 132.500 269.478 77.759 C 258.368 47.652, 248.103 21.243, 246.668 19.074 C 236.622 3.894, 218.422 -3.072, 201.024 1.603 M 417.500 1.447 C 410.181 3.317, 407.211 4.675, 401.878 8.589 C 392.444 15.515, 391.426 17.678, 368.409 79.711 C 356.635 111.441, 347.339 137.708, 347.751 138.081 C 349.676 139.824, 398.387 156.991, 398.928 156.117 C 399.260 155.579, 405.558 138.663, 412.922 118.526 C 420.287 98.388, 426.649 82.270, 427.060 82.706 C 427.471 83.143, 435.346 104.200, 444.561 129.500 C 453.776 154.800, 461.870 175.950, 462.548 176.500 C 463.226 177.050, 484.305 185.129, 509.391 194.454 C 534.476 203.778, 555 211.673, 555 211.997 C 555 212.321, 534.027 220.442, 508.393 230.043 L 461.786 247.500 444.782 294 C 435.431 319.575, 427.452 340.854, 427.052 341.287 C 426.652 341.721, 418.536 320.777, 409.017 294.746 L 391.708 247.418 313.354 217.959 L 235 188.500 233.387 183.652 L 231.774 178.805 227.328 183.152 C 224.862 185.564, 221.239 190.816, 219.191 194.948 C 215.692 202.009, 215.503 202.892, 215.560 211.948 C 215.607 219.509, 216.093 222.646, 217.893 227 C 220.967 234.433, 226.437 241.373, 232.487 245.514 C 235.825 247.799, 256.019 255.971, 292.907 269.963 C 323.381 281.523, 348.469 291.135, 348.657 291.324 C 348.846 291.512, 357.795 315.479, 368.544 344.583 C 379.293 373.688, 389.036 399.471, 390.196 401.881 C 393.081 407.874, 401.430 415.945, 408.103 419.192 C 419.936 424.949, 432.566 425.092, 444.551 419.605 C 450.439 416.910, 458.838 409.616, 462.063 404.398 C 463.189 402.575, 473.317 376.234, 484.569 345.862 C 495.821 315.489, 505.136 290.530, 505.270 290.397 C 505.403 290.264, 530.034 281.092, 560.006 270.016 C 589.978 258.939, 616.315 248.817, 618.534 247.523 C 624.232 244.198, 631.721 235.855, 634.517 229.718 C 639.563 218.644, 639.563 205.356, 634.517 194.282 C 631.719 188.141, 624.227 179.797, 618.534 176.482 C 616.315 175.190, 589.984 165.075, 560.021 154.004 C 530.057 142.933, 505.410 133.743, 505.249 133.583 C 505.088 133.422, 495.771 108.463, 484.544 78.120 C 473.317 47.776, 463.205 21.450, 462.073 19.618 C 459.236 15.028, 451.122 7.613, 446.173 5.088 C 436.842 0.328, 426.849 -0.941, 417.500 1.447 M 858 230 C 858 282.800, 857.859 326, 857.688 326 C 857.516 326, 853.353 324.630, 848.438 322.955 C 835.541 318.562, 815.343 313.369, 801.500 310.888 C 784.548 307.849, 748.005 307.109, 729 309.421 C 641.647 320.045, 574.337 370.718, 544.619 448.227 C 533.052 478.396, 528.612 503.882, 528.629 540 C 528.653 590.664, 537.694 632.052, 557.016 669.952 C 584.924 724.691, 631.413 760.852, 692.500 775.336 C 719.053 781.632, 712.973 781.362, 836.750 781.733 L 950 782.073 950 458.036 L 950 134 904 134 L 858 134 858 230 M 1409 458 L 1409 782 1516.756 782 C 1605.472 782, 1626.745 781.739, 1637.150 780.522 C 1678.990 775.627, 1716.351 761.148, 1746.500 738.144 C 1763.087 725.488, 1783.651 702.202, 1795.222 682.971 C 1812.134 654.865, 1823.406 620.294, 1828.634 580.500 C 1830.819 563.870, 1831.131 519.979, 1829.163 506 C 1824.395 472.124, 1813.873 440.626, 1798.968 415.604 C 1766.094 360.417, 1713.072 324.167, 1647.500 312.047 C 1630.307 308.869, 1620.036 308.017, 1598.801 308.008 C 1577.256 307.999, 1562.526 309.511, 1544 313.633 C 1534.453 315.757, 1509.318 323.013, 1502.750 325.541 C 1501.091 326.179, 1501 321.227, 1501 230.107 L 1501 134 1455 134 L 1409 134 1409 458 M 1156.051 293.086 C 1100.374 299.310, 1058.171 324.074, 1038.607 362 C 1023.517 391.252, 1019.994 427.462, 1029.438 456.250 C 1035.371 474.337, 1045.589 490.507, 1061.443 506.896 C 1084.480 530.711, 1105.008 545.129, 1165.500 579.982 C 1210.647 605.995, 1227.852 617.902, 1238.118 630.238 C 1245.803 639.472, 1248.264 645.088, 1248.788 654.591 C 1249.582 668.993, 1244.891 680.210, 1233.765 690.511 C 1222.231 701.190, 1206.205 707.658, 1185.593 709.954 C 1148.752 714.057, 1084.711 690.480, 1027.805 651.865 C 1024.673 649.739, 1021.860 648, 1021.555 648 C 1021.250 648, 1021 671.101, 1021 699.336 L 1021 750.672 1036.750 758.261 C 1085.421 781.713, 1121.326 791.373, 1169.605 794.006 C 1218.023 796.646, 1256.021 787.626, 1288.793 765.711 C 1323.761 742.329, 1344.213 706.045, 1346.675 663.025 C 1349.223 618.491, 1325.747 579.620, 1272 539.376 C 1258.192 529.038, 1236.500 514.803, 1203 494.098 C 1163.341 469.586, 1150.588 460.587, 1138.393 448.510 C 1130.692 440.884, 1127.512 436.908, 1125.037 431.815 C 1122.022 425.608, 1121.816 424.536, 1122.155 416.815 C 1122.429 410.568, 1123.127 407.256, 1124.961 403.500 C 1130.273 392.616, 1142.887 383.634, 1159.709 378.758 C 1166.587 376.765, 1169.668 376.506, 1186 376.551 C 1202.227 376.595, 1206.097 376.938, 1217.500 379.346 C 1250.573 386.328, 1288.273 402.707, 1321.250 424.419 L 1324 426.230 1324 378.782 L 1324 331.334 1307.250 323.251 C 1278.149 309.208, 1251.496 300.379, 1223 295.341 C 1211.020 293.224, 1204.676 292.723, 1186.500 292.460 C 1174.400 292.285, 1160.698 292.566, 1156.051 293.086 M 745.500 392.394 C 693.188 401.002, 654.331 432.474, 634.635 482.190 C 631.509 490.080, 627.558 504.553, 625.353 516.189 C 623.235 527.371, 622.387 565.402, 623.926 580.256 C 631.036 648.906, 664.803 689.434, 724.486 700.951 C 741.220 704.181, 758.379 704.995, 809.750 704.998 L 858 705 858 556.573 L 858 408.145 850.250 405.176 C 838.027 400.494, 826.825 397.192, 813.672 394.395 C 802.947 392.115, 798.647 391.764, 777.500 391.443 C 760.779 391.189, 751.074 391.477, 745.500 392.394 M 1563 391.654 C 1539.628 395.217, 1525.820 398.648, 1509.247 405.009 L 1500.993 408.178 1501.247 556.339 L 1501.500 704.500 1556.500 704.500 C 1596.040 704.500, 1614.311 704.132, 1621.500 703.192 C 1688.555 694.420, 1725.060 656.776, 1734.659 586.500 C 1736.929 569.878, 1736.893 536.307, 1734.588 521.500 C 1728.858 484.694, 1715.984 456.747, 1694.226 433.883 C 1682.777 421.852, 1671.025 413.172, 1656.500 406.020 C 1633.720 394.804, 1614.880 390.916, 1584.372 391.136 C 1573.992 391.211, 1564.375 391.444, 1563 391.654" stroke="none" fill="black" fill-rule="evenodd"/>
</svg>